<?xml version="1.0" standalone="yes"?>

<svg version="1.1" viewBox="0.0 0.0 325.0 203.0" fill="none" stroke="none" stroke-linecap="square" stroke-miterlimit="10" clip-path="url(#clip0)" xmlns="http://www.w3.org/2000/svg" xmlns:xlink="http://www.w3.org/1999/xlink"><clipPath id="clip0"><path d="M0 0L325.0 0L325.0 203.0L0 203.0L0 0Z" clip-rule="nonzero"></path></clipPath><path d="M171.61899 109.6823L171.44711 108.1198Q171.99399 108.26042 172.40024 108.26042Q172.94711 108.26042 173.28305 108.07292Q173.61899 107.88542 173.83774 107.5573Q173.99399 107.3073 174.33774 106.3073Q174.38461 106.16667 174.49399 105.90105L170.75961 96.02605L172.55649 96.02605L174.60336 101.7448Q175.00961 102.82292 175.32211 104.02605Q175.60336 102.8698 176.00961 101.77605L178.10336 96.02605L179.77524 96.02605L176.02524 106.0573Q175.43149 107.6823 175.08774 108.29167Q174.65024 109.1198 174.07211 109.50261Q173.49399 109.88542 172.69711 109.88542Q172.21274 109.88542 171.61899 109.6823ZM189.33774 104.27605L189.33774 105.88542L180.35336 105.88542Q180.33774 105.27605 180.54086 104.72917Q180.88461 103.8073 181.64243 102.91667Q182.40024 102.02605 183.82211 100.85417Q186.04086 99.04167 186.82211 97.97917Q187.60336 96.91667 187.60336 95.96355Q187.60336 94.97917 186.89243 94.29167Q186.18149 93.60417 185.04086 93.60417Q183.83774 93.60417 183.11118 94.330734Q182.38461 95.0573 182.38461 96.33855L180.66586 96.16667Q180.83774 94.2448 181.99399 93.236984Q183.15024 92.22917 185.08774 92.22917Q187.04086 92.22917 188.18149 93.31511Q189.32211 94.40105 189.32211 96.01042Q189.32211 96.82292 188.98618 97.611984Q188.65024 98.40105 187.8768 99.268234Q187.10336 100.13542 185.30649 101.66667Q183.80649 102.9323 183.3768 103.37761Q182.94711 103.82292 182.66586 104.27605L189.33774 104.27605Z" fill-rule="nonzero" fill="#000000"></path><path d="M91.61958 109.6823L91.44771 108.1198Q91.99458 108.26042 92.40083 108.26042Q92.94771 108.26042 93.283646 108.07292Q93.61958 107.88542 93.83833 107.5573Q93.99458 107.3073 94.33833 106.3073Q94.38521 106.16667 94.49458 105.90105L90.76021 96.02605L92.55708 96.02605L94.60396 101.7448Q95.01021 102.82292 95.32271 104.02605Q95.60396 102.8698 96.01021 101.77605L98.10396 96.02605L99.77583 96.02605L96.02583 106.0573Q95.43208 107.6823 95.08833 108.29167Q94.65083 109.1198 94.07271 109.50261Q93.49458 109.88542 92.69771 109.88542Q92.21333 109.88542 91.61958 109.6823ZM100.55708 99.1823Q100.55708 96.76042 101.05708 95.29167Q101.55708 93.82292 102.533646 93.02605Q103.51021 92.22917 104.99458 92.22917Q106.08833 92.22917 106.91646 92.66667Q107.74458 93.10417 108.283646 93.94011Q108.82271 94.77605 109.127396 95.96355Q109.43208 97.15105 109.43208 99.1823Q109.43208 101.57292 108.939896 103.04167Q108.44771 104.51042 107.471146 105.31511Q106.49458 106.1198 104.99458 106.1198Q103.02583 106.1198 101.91646 104.71355Q100.55708 103.01042 100.55708 99.1823ZM102.27583 99.1823Q102.27583 102.52605 103.064896 103.63542Q103.85396 104.7448 104.99458 104.7448Q106.15083 104.7448 106.93208 103.62761Q107.71333 102.51042 107.71333 99.1823Q107.71333 95.82292 106.93208 94.71355Q106.15083 93.60417 104.97896 93.60417Q103.82271 93.60417 103.15083 94.58855Q102.27583 95.82292 102.27583 99.1823Z" fill-rule="nonzero" fill="#000000"></path><path d="M129.73438 96.02605L132.51562 96.02605L134.875 103.02605L137.17188 96.02605L139.875 96.02605L136.39062 105.51042L135.76562 107.22917Q135.42188 108.08855 135.11719 108.549484Q134.8125 109.01042 134.40625 109.29167Q134.0 109.57292 133.40625 109.72917Q132.8125 109.88542 132.07812 109.88542Q131.32812 109.88542 130.60938 109.72917L130.375 107.6823Q130.98438 107.8073 131.46875 107.8073Q132.39062 107.8073 132.82031 107.27605Q133.25 106.7448 133.48438 105.91667L129.73438 96.02605ZM147.48438 105.88542L144.875 105.88542L144.875 96.0573Q143.4375 97.40105 141.5 98.04167L141.5 95.66667Q142.53125 95.33855 143.72656 94.40886Q144.92188 93.47917 145.35938 92.22917L147.48438 92.22917L147.48438 105.88542Z" fill-rule="nonzero" fill="#000000"></path><path d="M80.0 40.0L200.0 40.0L200.0 160.0L80.0 160.0Z" fill-rule="nonzero" stroke="#000000" stroke-width="4.0" stroke-linejoin="round" stroke-linecap="butt"></path><path d="M40.0 40.0L80.0 40.0L80.0 80.0L40.0 80.0Z" fill-rule="nonzero" stroke="#000000" stroke-width="2.0" stroke-linejoin="round" stroke-linecap="butt"></path><path d="M80.0 40.0L120.0 40.0L120.0 80.0L80.0 80.0Z" fill-rule="nonzero" stroke="#000000" stroke-width="4.0" stroke-linejoin="round" stroke-linecap="butt"></path><path d="M120.0 40.0L160.0 40.0L160.0 80.0L120.0 80.0Z" fill-rule="nonzero" stroke="#000000" stroke-width="4.0" stroke-linejoin="round" stroke-linecap="butt"></path><path d="M40.0 80.0L80.0 80.0L80.0 120.0L40.0 120.0Z" fill-rule="nonzero" stroke="#000000" stroke-width="2.0" stroke-linejoin="round" stroke-linecap="butt"></path><path d="M80.0 80.0L120.0 80.0L120.0 120.0L80.0 120.0Z" fill-rule="nonzero" stroke="#000000" stroke-width="4.0" stroke-linejoin="round" stroke-linecap="butt"></path><path d="M120.0 80.0L160.0 80.0L160.0 120.0L120.0 120.0Z" fill-rule="nonzero" stroke="#000000" stroke-width="4.0" stroke-linejoin="round" stroke-linecap="butt"></path><path d="M40.0 120.0L80.0 120.0L80.0 160.0L40.0 160.0Z" fill-rule="nonzero" stroke="#000000" stroke-width="2.0" stroke-linejoin="round" stroke-linecap="butt"></path><path d="M80.0 120.0L120.0 120.0L120.0 160.0L80.0 160.0Z" fill-rule="nonzero" stroke="#000000" stroke-width="4.0" stroke-linejoin="round" stroke-linecap="butt"></path><path d="M120.0 120.0L160.0 120.0L160.0 160.0L120.0 160.0Z" fill-rule="nonzero" stroke="#000000" stroke-width="4.0" stroke-linejoin="round" stroke-linecap="butt"></path><path d="M160.0 40.0L200.0 40.0L200.0 80.0L160.0 80.0Z" fill-rule="nonzero" stroke="#000000" stroke-width="4.0" stroke-linejoin="round" stroke-linecap="butt"></path><path d="M199.99939 40.0L239.99939 40.0L239.99939 80.0L199.99939 80.0Z" fill-rule="nonzero" stroke="#000000" stroke-width="2.0" stroke-linejoin="round" stroke-linecap="butt"></path><path d="M240.0 40.0L280.0 40.0L280.0 80.0L240.0 80.0Z" fill-rule="nonzero" stroke="#000000" stroke-width="2.0" stroke-linejoin="round" stroke-linecap="butt"></path><path d="M160.0 80.0L200.0 80.0L200.0 120.0L160.0 120.0Z" fill-rule="nonzero" stroke="#000000" stroke-width="4.0" stroke-linejoin="round" stroke-linecap="butt"></path><path d="M200.0 80.0L240.0 80.0L240.0 120.0L200.0 120.0Z" fill-rule="nonzero" stroke="#000000" stroke-width="2.0" stroke-linejoin="round" stroke-linecap="butt"></path><path d="M240.0 80.0L280.0 80.0L280.0 120.0L240.0 120.0Z" fill-rule="nonzero" stroke="#000000" stroke-width="2.0" stroke-linejoin="round" stroke-linecap="butt"></path><path d="M160.0 120.0L200.0 120.0L200.0 160.0L160.0 160.0Z" fill-rule="nonzero" stroke="#000000" stroke-width="4.0" stroke-linejoin="round" stroke-linecap="butt"></path><path d="M200.0 120.0L240.0 120.0L240.0 160.0L200.0 160.0Z" fill-rule="nonzero" stroke="#000000" stroke-width="2.0" stroke-linejoin="round" stroke-linecap="butt"></path><path d="M240.0 120.0L280.0 120.0L280.0 160.0L240.0 160.0Z" fill-rule="nonzero" stroke="#000000" stroke-width="2.0" stroke-linejoin="round" stroke-linecap="butt"></path><path d="M212.85257 109.6823L212.6807 108.1198Q213.22757 108.26042 213.63382 108.26042Q214.1807 108.26042 214.51663 108.07292Q214.85257 107.88542 215.07132 107.5573Q215.22757 107.3073 215.57132 106.3073Q215.6182 106.16667 215.72757 105.90105L211.9932 96.02605L213.79007 96.02605L215.83694 101.7448Q216.2432 102.82292 216.5557 104.02605Q216.83694 102.8698 217.2432 101.77605L219.33694 96.02605L221.00882 96.02605L217.25882 106.0573Q216.66507 107.6823 216.32132 108.29167Q215.88382 109.1198 215.3057 109.50261Q214.72757 109.88542 213.9307 109.88542Q213.44632 109.88542 212.85257 109.6823ZM221.8057 102.29167L223.47757 102.07292Q223.75882 103.4948 224.45413 104.1198Q225.14944 104.7448 226.13382 104.7448Q227.32132 104.7448 228.13382 103.924484Q228.94632 103.10417 228.94632 101.90105Q228.94632 100.76042 228.1885 100.01042Q227.4307 99.26042 226.27444 99.26042Q225.8057 99.26042 225.10257 99.44792L225.29007 97.97917Q225.44632 97.9948 225.5557 97.9948Q226.6182 97.9948 227.46976 97.44011Q228.32132 96.88542 228.32132 95.72917Q228.32132 94.8073 227.70413 94.205734Q227.08694 93.60417 226.10257 93.60417Q225.13382 93.60417 224.48538 94.21355Q223.83694 94.82292 223.64944 96.0573L221.97757 95.76042Q222.27444 94.07292 223.36038 93.15105Q224.44632 92.22917 226.07132 92.22917Q227.1807 92.22917 228.1182 92.705734Q229.0557 93.1823 229.54788 94.01042Q230.04007 94.83855 230.04007 95.76042Q230.04007 96.65105 229.57132 97.3698Q229.10257 98.08855 228.16507 98.52605Q229.38382 98.79167 230.04788 99.674484Q230.71194 100.5573 230.71194 101.8698Q230.71194 103.65105 229.41507 104.88542Q228.1182 106.1198 226.13382 106.1198Q224.33694 106.1198 223.15726 105.0573Q221.97757 103.9948 221.8057 102.29167Z" fill-rule="nonzero" fill="#000000"></path><path d="M40.0 80.0L-1.2765719E-6 80.0" fill-rule="nonzero" stroke="#000000" stroke-width="2.0" stroke-linejoin="round" stroke-linecap="butt" stroke-dasharray="2.0,6.0"></path><path d="M40.0 120.0L-1.2765719E-6 120.0" fill-rule="nonzero" stroke="#000000" stroke-width="2.0" stroke-linejoin="round" stroke-linecap="butt" stroke-dasharray="2.0,6.0"></path><path d="M40.0 40.0L-1.2765719E-6 40.0" fill-rule="nonzero" stroke="#000000" stroke-width="2.0" stroke-linejoin="round" stroke-linecap="butt" stroke-dasharray="2.0,6.0"></path><path d="M40.0 160.0L-1.2765719E-6 160.0" fill-rule="nonzero" stroke="#000000" stroke-width="2.0" stroke-linejoin="round" stroke-linecap="butt" stroke-dasharray="2.0,6.0"></path><path d="M320.0 40.0L280.0 40.0" fill-rule="nonzero" stroke="#000000" stroke-width="2.0" stroke-linejoin="round" stroke-linecap="butt" stroke-dasharray="2.0,6.0"></path><path d="M320.0 80.0L280.0 80.0" fill-rule="nonzero" stroke="#000000" stroke-width="2.0" stroke-linejoin="round" stroke-linecap="butt" stroke-dasharray="2.0,6.0"></path><path d="M320.0 120.0L280.0 120.0" fill-rule="nonzero" stroke="#000000" stroke-width="2.0" stroke-linejoin="round" stroke-linecap="butt" stroke-dasharray="2.0,6.0"></path><path d="M320.0 160.0L280.0 160.0" fill-rule="nonzero" stroke="#000000" stroke-width="2.0" stroke-linejoin="round" stroke-linecap="butt" stroke-dasharray="2.0,6.0"></path><path d="M40.0 40.0L40.0 -1.2765719E-6" fill-rule="nonzero" stroke="#000000" stroke-width="2.0" stroke-linejoin="round" stroke-linecap="butt" stroke-dasharray="2.0,6.0"></path><path d="M80.0 40.0L80.0 -1.2765719E-6" fill-rule="nonzero" stroke="#000000" stroke-width="2.0" stroke-linejoin="round" stroke-linecap="butt" stroke-dasharray="2.0,6.0"></path><path d="M120.0 40.0L120.0 -1.2765719E-6" fill-rule="nonzero" stroke="#000000" stroke-width="2.0" stroke-linejoin="round" stroke-linecap="butt" stroke-dasharray="2.0,6.0"></path><path d="M160.0 40.0L160.0 -1.2765719E-6" fill-rule="nonzero" stroke="#000000" stroke-width="2.0" stroke-linejoin="round" stroke-linecap="butt" stroke-dasharray="2.0,6.0"></path><path d="M200.0 40.0L200.0 -1.2765719E-6" fill-rule="nonzero" stroke="#000000" stroke-width="2.0" stroke-linejoin="round" stroke-linecap="butt" stroke-dasharray="2.0,6.0"></path><path d="M240.0 40.0L240.0 -1.2765719E-6" fill-rule="nonzero" stroke="#000000" stroke-width="2.0" stroke-linejoin="round" stroke-linecap="butt" stroke-dasharray="2.0,6.0"></path><path d="M280.0 40.0L280.0 -1.2765719E-6" fill-rule="nonzero" stroke="#000000" stroke-width="2.0" stroke-linejoin="round" stroke-linecap="butt" stroke-dasharray="2.0,6.0"></path><path d="M40.0 200.0L40.0 160.0" fill-rule="nonzero" stroke="#000000" stroke-width="2.0" stroke-linejoin="round" stroke-linecap="butt" stroke-dasharray="2.0,6.0"></path><path d="M80.0 200.0L80.0 160.0" fill-rule="nonzero" stroke="#000000" stroke-width="2.0" stroke-linejoin="round" stroke-linecap="butt" stroke-dasharray="2.0,6.0"></path><path d="M120.0 200.0L120.0 160.0" fill-rule="nonzero" stroke="#000000" stroke-width="2.0" stroke-linejoin="round" stroke-linecap="butt" stroke-dasharray="2.0,6.0"></path><path d="M160.0 200.0L160.0 160.0" fill-rule="nonzero" stroke="#000000" stroke-width="2.0" stroke-linejoin="round" stroke-linecap="butt" stroke-dasharray="2.0,6.0"></path><path d="M200.0 200.0L200.0 160.0" fill-rule="nonzero" stroke="#000000" stroke-width="2.0" stroke-linejoin="round" stroke-linecap="butt" stroke-dasharray="2.0,6.0"></path><path d="M240.0 200.0L240.0 160.0" fill-rule="nonzero" stroke="#000000" stroke-width="2.0" stroke-linejoin="round" stroke-linecap="butt" stroke-dasharray="2.0,6.0"></path><path d="M280.0 200.0L280.0 160.0" fill-rule="nonzero" stroke="#000000" stroke-width="2.0" stroke-linejoin="round" stroke-linecap="butt" stroke-dasharray="2.0,6.0"></path></svg>

