<?xml version="1.0" standalone="yes"?>

<svg version="1.1" viewBox="0.0 0.0 299.0 255.0" fill="none" stroke="none" stroke-linecap="square" stroke-miterlimit="10" clip-path="url(#clip0)" xmlns="http://www.w3.org/2000/svg" xmlns:xlink="http://www.w3.org/1999/xlink"><clipPath id="clip0"><path d="M0 0L299.0 0L299.0 255.0L0 255.0L0 0Z" clip-rule="nonzero"></path></clipPath><path d="M206.13274 6.9756694L246.13274 6.9756694L246.13274 46.97567L206.13274 46.97567Z" fill-rule="nonzero" fill="#cccccc" stroke="#000000" stroke-width="2.0" stroke-linejoin="round" stroke-linecap="butt"></path><path d="M206.13333 46.97567L246.13333 46.97567L246.13333 86.97567L206.13333 86.97567Z" fill-rule="nonzero" stroke="#000000" stroke-width="2.0" stroke-linejoin="round" stroke-linecap="butt"></path><path d="M206.13333 86.97567L246.13333 86.97567L246.13333 126.97567L206.13333 126.97567Z" fill-rule="nonzero" stroke="#000000" stroke-width="2.0" stroke-linejoin="round" stroke-linecap="butt"></path><path d="M286.28717 6.9038744L246.28717 6.9038744" fill-rule="nonzero" stroke="#000000" stroke-width="2.0" stroke-linejoin="round" stroke-linecap="butt" stroke-dasharray="2.0,6.0"></path><path d="M286.28717 46.97567L246.28717 46.97567" fill-rule="nonzero" stroke="#000000" stroke-width="2.0" stroke-linejoin="round" stroke-linecap="butt" stroke-dasharray="2.0,6.0"></path><path d="M286.28717 87.119255L246.28717 87.119255" fill-rule="nonzero" stroke="#000000" stroke-width="2.0" stroke-linejoin="round" stroke-linecap="butt" stroke-dasharray="2.0,6.0"></path><path d="M286.28717 127.00131L246.28717 127.00131" fill-rule="nonzero" stroke="#000000" stroke-width="2.0" stroke-linejoin="round" stroke-linecap="butt" stroke-dasharray="2.0,6.0"></path><path d="M86.246155 87.0167L126.246155 87.0167L126.246155 127.0167L86.246155 127.0167Z" fill-rule="nonzero" stroke="#000000" stroke-width="4.0" stroke-linejoin="round" stroke-linecap="butt"></path><path d="M166.13274 46.903877L206.13274 46.903877L206.13274 86.90388L166.13274 86.90388Z" fill-rule="nonzero" stroke="#000000" stroke-width="2.0" stroke-linejoin="round" stroke-linecap="butt"></path><path d="M46.13333 126.84234L86.13333 126.84234L86.13333 166.84233L46.13333 166.84233Z" fill-rule="nonzero" fill="#cccccc" stroke="#000000" stroke-width="2.0" stroke-linejoin="round" stroke-linecap="butt"></path><path d="M206.13333 127.098755L246.13333 127.098755L246.13333 167.09875L206.13333 167.09875Z" fill-rule="nonzero" stroke="#000000" stroke-width="2.0" stroke-linejoin="round" stroke-linecap="butt"></path><path d="M86.174355 127.0167L126.174355 127.0167L126.174355 167.01671L86.174355 167.01671Z" fill-rule="nonzero" stroke="#000000" stroke-width="2.0" stroke-linejoin="round" stroke-linecap="butt"></path><path d="M126.276924 127.119255L166.27693 127.119255L166.27693 167.11926L126.276924 167.11926Z" fill-rule="nonzero" stroke="#000000" stroke-width="2.0" stroke-linejoin="round" stroke-linecap="butt"></path><path d="M166.06155 6.9038744L206.06155 6.9038744L206.06155 46.903877L166.06155 46.903877Z" fill-rule="nonzero" fill="#cccccc" stroke="#000000" stroke-width="2.0" stroke-linejoin="round" stroke-linecap="butt"></path><path d="M166.16411 87.00644L206.16411 87.00644L206.16411 127.00644L166.16411 127.00644Z" fill-rule="nonzero" stroke="#000000" stroke-width="2.0" stroke-linejoin="round" stroke-linecap="butt"></path><path d="M166.09232 126.924385L206.09232 126.924385L206.09232 166.9244L166.09232 166.9244Z" fill-rule="nonzero" stroke="#000000" stroke-width="2.0" stroke-linejoin="round" stroke-linecap="butt"></path><path d="M206.28717 166.99619L246.28717 166.99619L246.28717 206.99619L206.28717 206.99619Z" fill-rule="nonzero" stroke="#000000" stroke-width="2.0" stroke-linejoin="round" stroke-linecap="butt"></path><path d="M166.17436 166.88336L206.17436 166.88336L206.17436 206.88336L166.17436 206.88336Z" fill-rule="nonzero" stroke="#000000" stroke-width="2.0" stroke-linejoin="round" stroke-linecap="butt"></path><path d="M126.276924 166.98593L166.27693 166.98593L166.27693 206.98593L126.276924 206.98593Z" fill-rule="nonzero" stroke="#000000" stroke-width="2.0" stroke-linejoin="round" stroke-linecap="butt"></path><path d="M86.06154 167.08849L126.06154 167.08849L126.06154 207.08849L86.06154 207.08849Z" fill-rule="nonzero" stroke="#000000" stroke-width="2.0" stroke-linejoin="round" stroke-linecap="butt"></path><path d="M46.164104 166.87311L86.16411 166.87311L86.16411 206.87311L46.164104 206.87311Z" fill-rule="nonzero" fill="#cccccc" stroke="#000000" stroke-width="2.0" stroke-linejoin="round" stroke-linecap="butt"></path><path d="M286.28717 167.11926L246.28717 167.11926" fill-rule="nonzero" stroke="#000000" stroke-width="2.0" stroke-linejoin="round" stroke-linecap="butt" stroke-dasharray="2.0,6.0"></path><path d="M286.28717 206.91412L246.28717 206.91412" fill-rule="nonzero" stroke="#000000" stroke-width="2.0" stroke-linejoin="round" stroke-linecap="butt" stroke-dasharray="2.0,6.0"></path><path d="M246.12308 247.02695L246.21756 207.02695" fill-rule="nonzero" stroke="#000000" stroke-width="2.0" stroke-linejoin="round" stroke-linecap="butt" stroke-dasharray="2.0,6.0"></path><path d="M206.22565 247.12952L206.32013 207.12952" fill-rule="nonzero" stroke="#000000" stroke-width="2.0" stroke-linejoin="round" stroke-linecap="butt" stroke-dasharray="2.0,6.0"></path><path d="M166.01027 246.91412L166.10475 206.91412" fill-rule="nonzero" stroke="#000000" stroke-width="2.0" stroke-linejoin="round" stroke-linecap="butt" stroke-dasharray="2.0,6.0"></path><path d="M126.11282 247.0167L126.207306 207.0167" fill-rule="nonzero" stroke="#000000" stroke-width="2.0" stroke-linejoin="round" stroke-linecap="butt" stroke-dasharray="2.0,6.0"></path><path d="M86.215385 247.11926L86.309875 207.11926" fill-rule="nonzero" stroke="#000000" stroke-width="2.0" stroke-linejoin="round" stroke-linecap="butt" stroke-dasharray="2.0,6.0"></path><path d="M46.0 246.90387L46.09449 206.90387" fill-rule="nonzero" stroke="#000000" stroke-width="2.0" stroke-linejoin="round" stroke-linecap="butt" stroke-dasharray="2.0,6.0"></path><path d="M46.13333 86.97567L86.13333 86.97567L86.13333 126.97567L46.13333 126.97567Z" fill-rule="nonzero" fill="#cccccc" stroke="#000000" stroke-width="4.0" stroke-linejoin="round" stroke-linecap="butt"></path><path d="M69.54596 115.54022L69.54596 116.4621L64.342834 116.4621Q64.342834 116.11835 64.467834 115.79022Q64.655334 115.25897 65.092834 114.74335Q65.530334 114.22772 66.35846 113.55585Q67.63971 112.49335 68.092834 111.88397Q68.54596 111.2746 68.54596 110.72772Q68.54596 110.1496 68.13971 109.75116Q67.73346 109.35272 67.061584 109.35272Q66.374084 109.35272 65.95221 109.7746Q65.530334 110.19647 65.530334 110.93085L64.530334 110.8371Q64.63971 109.72772 65.30377 109.141785Q65.967834 108.55585 67.092834 108.55585Q68.217834 108.55585 68.8819 109.18085Q69.54596 109.80585 69.54596 110.74335Q69.54596 111.2121 69.35065 111.673035Q69.155334 112.13397 68.71002 112.63397Q68.26471 113.13397 67.217834 114.0246Q66.342834 114.74335 66.10065 115.00897Q65.85846 115.2746 65.686584 115.54022L69.54596 115.54022ZM70.936584 116.4621L70.936584 115.36835L72.030334 115.36835L72.030334 116.4621Q72.030334 117.07147 71.8194 117.44647Q71.60846 117.82147 71.13971 118.0246L70.85846 117.60272Q71.17096 117.47772 71.3194 117.2121Q71.467834 116.94647 71.48346 116.4621L70.936584 116.4621ZM73.35846 112.57147Q73.35846 111.18085 73.64752 110.329285Q73.936584 109.47772 74.5069 109.016785Q75.07721 108.55585 75.936584 108.55585Q76.561584 108.55585 77.03815 108.81366Q77.51471 109.07147 77.82721 109.548035Q78.13971 110.0246 78.3194 110.71991Q78.499084 111.41522 78.499084 112.57147Q78.499084 113.9621 78.21002 114.81366Q77.92096 115.66522 77.35846 116.13397Q76.79596 116.60272 75.936584 116.60272Q74.79596 116.60272 74.13971 115.7746Q73.35846 114.79022 73.35846 112.57147ZM74.35846 112.57147Q74.35846 114.5246 74.811584 115.16522Q75.26471 115.80585 75.936584 115.80585Q76.592834 115.80585 77.04596 115.15741Q77.499084 114.50897 77.499084 112.57147Q77.499084 110.63397 77.04596 109.99335Q76.592834 109.35272 75.92096 109.35272Q75.249084 109.35272 74.85846 109.91522Q74.35846 110.63397 74.35846 112.57147Z" fill-rule="nonzero" fill="#000000"></path><path d="M6.0 127.119255L46.0 127.119255L46.0 167.11926L6.0 167.11926Z" fill-rule="nonzero" stroke="#000000" stroke-width="4.0" stroke-linejoin="round" stroke-linecap="butt"></path><path d="M6.0 86.97567L46.0 86.97567L46.0 126.97567L6.0 126.97567Z" fill-rule="nonzero" stroke="#000000" stroke-width="4.0" stroke-linejoin="round" stroke-linecap="butt"></path><path d="M6.0 47.119263L46.0 47.119263L46.0 87.11926L6.0 87.11926Z" fill-rule="nonzero" stroke="#000000" stroke-width="4.0" stroke-linejoin="round" stroke-linecap="butt"></path><path d="M126.03077 6.9756694L166.03078 6.9756694L166.03078 46.97567L126.03077 46.97567Z" fill-rule="nonzero" fill="#cccccc" stroke="#000000" stroke-width="2.0" stroke-linejoin="round" stroke-linecap="butt"></path><path d="M86.06154 6.9038744L126.06154 6.9038744L126.06154 46.903877L86.06154 46.903877Z" fill-rule="nonzero" fill="#cccccc" stroke="#000000" stroke-width="2.0" stroke-linejoin="round" stroke-linecap="butt"></path><path d="M46.13333 6.9038744L86.13333 6.9038744L86.13333 46.903877L46.13333 46.903877Z" fill-rule="nonzero" fill="#cccccc" stroke="#000000" stroke-width="2.0" stroke-linejoin="round" stroke-linecap="butt"></path><path d="M46.13333 47.119263L86.13333 47.119263L86.13333 87.11926L46.13333 87.11926Z" fill-rule="nonzero" fill="#cccccc" stroke="#000000" stroke-width="4.0" stroke-linejoin="round" stroke-linecap="butt"></path><path d="M46.13333 127.119255L86.13333 127.119255L86.13333 167.11926L46.13333 167.11926Z" fill-rule="nonzero" fill="#cccccc" stroke="#000000" stroke-width="4.0" stroke-linejoin="round" stroke-linecap="butt"></path><path d="M58.163834 115.17972L57.99196 113.61722Q58.538834 113.75784 58.945084 113.75784Q59.49196 113.75784 59.827896 113.57034Q60.163834 113.38284 60.382584 113.05472Q60.538834 112.80472 60.882584 111.80472Q60.92946 111.66409 61.038834 111.39847L57.30446 101.52347L59.101334 101.52347L61.14821 107.24222Q61.55446 108.32034 61.86696 109.52347Q62.14821 108.36722 62.55446 107.27347L64.64821 101.52347L66.32008 101.52347L62.570084 111.55472Q61.976334 113.17972 61.632584 113.78909Q61.195084 114.61722 60.61696 115.00003Q60.038834 115.38284 59.24196 115.38284Q58.757584 115.38284 58.163834 115.17972Z" fill-rule="nonzero" fill="#000000"></path><path d="M86.06154 47.119263L126.06154 47.119263L126.06154 87.11926L86.06154 87.11926Z" fill-rule="nonzero" stroke="#000000" stroke-width="4.0" stroke-linejoin="round" stroke-linecap="butt"></path><path d="M126.276924 86.97567L166.27693 86.97567L166.27693 126.97567L126.276924 126.97567Z" fill-rule="nonzero" stroke="#000000" stroke-width="2.0" stroke-linejoin="round" stroke-linecap="butt"></path><path d="M86.06154 127.119255L126.06154 127.119255L126.06154 167.11926L86.06154 167.11926Z" fill-rule="nonzero" stroke="#000000" stroke-width="4.0" stroke-linejoin="round" stroke-linecap="butt"></path><path d="M18.750656 59.365982L32.766403 74.862045" fill-rule="nonzero" stroke="#000000" stroke-width="2.0" stroke-linejoin="round" stroke-linecap="butt"></path><path d="M34.25197 58.867294L17.748032 75.37123" fill-rule="nonzero" stroke="#000000" stroke-width="2.0" stroke-linejoin="round" stroke-linecap="butt"></path><path d="M18.750656 99.26342L32.766403 114.75948" fill-rule="nonzero" stroke="#000000" stroke-width="2.0" stroke-linejoin="round" stroke-linecap="butt"></path><path d="M34.25197 98.76473L17.748032 115.26867" fill-rule="nonzero" stroke="#000000" stroke-width="2.0" stroke-linejoin="round" stroke-linecap="butt"></path><path d="M18.750656 139.36598L32.766403 154.86205" fill-rule="nonzero" stroke="#000000" stroke-width="2.0" stroke-linejoin="round" stroke-linecap="butt"></path><path d="M34.25197 138.8673L17.748032 155.37123" fill-rule="nonzero" stroke="#000000" stroke-width="2.0" stroke-linejoin="round" stroke-linecap="butt"></path></svg>

